<mxfile host="app.diagrams.net" agent="Mozilla/5.0 (Macintosh; Intel Mac OS X 10_15_7) AppleWebKit/537.36 (KHTML, like Gecko) Chrome/131.0.0.0 Safari/537.36" version="25.0.3">
  <diagram name="第 1 页" id="nqGPiwXNIymZ_IL6BkIG">
    <mxGraphModel dx="911" dy="507" grid="1" gridSize="10" guides="1" tooltips="1" connect="1" arrows="1" fold="1" page="1" pageScale="1" pageWidth="827" pageHeight="1169" math="0" shadow="0">
      <root>
        <mxCell id="0" />
        <mxCell id="1" parent="0" />
        <mxCell id="MwWSzZCnPVQ0mqiynxkE-2" value="Rechercher Une Recette" style="text;strokeColor=none;fillColor=none;html=1;fontSize=24;fontStyle=1;verticalAlign=middle;align=center;" parent="1" vertex="1">
          <mxGeometry x="90" y="10" width="140" height="40" as="geometry" />
        </mxCell>
        <mxCell id="MwWSzZCnPVQ0mqiynxkE-5" value="Search" style="strokeWidth=1;shadow=0;dashed=0;align=center;html=1;shape=mxgraph.mockup.forms.searchBox;strokeColor=#999999;mainText=;strokeColor2=#008cff;fontColor=#666666;fontSize=17;align=left;spacingLeft=3;whiteSpace=wrap;" parent="1" vertex="1">
          <mxGeometry x="240" y="60" width="300" height="30" as="geometry" />
        </mxCell>
        <mxCell id="MwWSzZCnPVQ0mqiynxkE-12" value="&lt;font style=&quot;font-size: 24px;&quot;&gt;Nom d&#39;une recette&lt;/font&gt;" style="text;html=1;align=center;verticalAlign=middle;whiteSpace=wrap;rounded=0;" parent="1" vertex="1">
          <mxGeometry y="60" width="240" height="30" as="geometry" />
        </mxCell>
        <mxCell id="MwWSzZCnPVQ0mqiynxkE-21" value="&lt;font style=&quot;font-size: 24px;&quot;&gt;Catégorie&lt;/font&gt;" style="text;html=1;align=center;verticalAlign=middle;whiteSpace=wrap;rounded=0;" parent="1" vertex="1">
          <mxGeometry x="10" y="120" width="200" height="30" as="geometry" />
        </mxCell>
        <mxCell id="MwWSzZCnPVQ0mqiynxkE-68" value="Dropdown button" style="rounded=1;fillColor=#F1F2F4;strokeColor=none;html=1;whiteSpace=wrap;fontColor=#596780;align=left;fontSize=12;spacingLeft=10;sketch=0;" parent="1" vertex="1">
          <mxGeometry x="240" y="118.5" width="140" height="33" as="geometry" />
        </mxCell>
        <mxCell id="MwWSzZCnPVQ0mqiynxkE-69" value="" style="shape=triangle;direction=south;fillColor=#596780;strokeColor=none;html=1;sketch=0;" parent="MwWSzZCnPVQ0mqiynxkE-68" vertex="1">
          <mxGeometry x="1" y="0.5" width="12" height="6" relative="1" as="geometry">
            <mxPoint x="-20" y="-3" as="offset" />
          </mxGeometry>
        </mxCell>
        <mxCell id="MwWSzZCnPVQ0mqiynxkE-70" value="&lt;font style=&quot;font-size: 24px;&quot;&gt;Etiquette*&lt;/font&gt;" style="text;html=1;align=center;verticalAlign=middle;whiteSpace=wrap;rounded=0;" parent="1" vertex="1">
          <mxGeometry x="90" y="240" width="60" height="30" as="geometry" />
        </mxCell>
        <mxCell id="MwWSzZCnPVQ0mqiynxkE-71" value="&lt;font style=&quot;font-size: 24px;&quot;&gt;Note*&lt;/font&gt;" style="text;html=1;align=center;verticalAlign=middle;whiteSpace=wrap;rounded=0;" parent="1" vertex="1">
          <mxGeometry x="80" y="294" width="60" height="30" as="geometry" />
        </mxCell>
        <mxCell id="MwWSzZCnPVQ0mqiynxkE-73" value="Dropdown button" style="rounded=1;fillColor=#F1F2F4;strokeColor=none;html=1;whiteSpace=wrap;fontColor=#596780;align=left;fontSize=12;spacingLeft=10;sketch=0;" parent="1" vertex="1">
          <mxGeometry x="240" y="240" width="140" height="33" as="geometry" />
        </mxCell>
        <mxCell id="MwWSzZCnPVQ0mqiynxkE-74" value="" style="shape=triangle;direction=south;fillColor=#596780;strokeColor=none;html=1;sketch=0;" parent="MwWSzZCnPVQ0mqiynxkE-73" vertex="1">
          <mxGeometry x="1" y="0.5" width="12" height="6" relative="1" as="geometry">
            <mxPoint x="-20" y="-3" as="offset" />
          </mxGeometry>
        </mxCell>
        <mxCell id="MwWSzZCnPVQ0mqiynxkE-89" value="" style="verticalLabelPosition=bottom;shadow=0;dashed=0;align=center;html=1;verticalAlign=top;strokeWidth=1;shape=mxgraph.mockup.misc.rating;strokeColor=#999999;fillColor=#ffff00;emptyFillColor=#ffffff;grade=4;ratingScale=5;ratingStyle=star;" parent="1" vertex="1">
          <mxGeometry x="240" y="294" width="225" height="30" as="geometry" />
        </mxCell>
        <mxCell id="MwWSzZCnPVQ0mqiynxkE-90" value="&lt;font style=&quot;font-size: 24px;&quot;&gt;Niveau de difficulté*&lt;/font&gt;" style="text;html=1;align=center;verticalAlign=middle;whiteSpace=wrap;rounded=0;" parent="1" vertex="1">
          <mxGeometry x="10" y="354" width="230" height="30" as="geometry" />
        </mxCell>
        <mxCell id="MwWSzZCnPVQ0mqiynxkE-91" value="&lt;font style=&quot;font-size: 24px;&quot;&gt;Coût*&lt;/font&gt;" style="text;html=1;align=center;verticalAlign=middle;whiteSpace=wrap;rounded=0;" parent="1" vertex="1">
          <mxGeometry x="80" y="464" width="60" height="30" as="geometry" />
        </mxCell>
        <mxCell id="MwWSzZCnPVQ0mqiynxkE-92" value="&lt;font style=&quot;font-size: 24px;&quot;&gt;Intensité*&lt;/font&gt;" style="text;html=1;align=center;verticalAlign=middle;whiteSpace=wrap;rounded=0;" parent="1" vertex="1">
          <mxGeometry x="80" y="524" width="60" height="30" as="geometry" />
        </mxCell>
        <mxCell id="R2gYlSWYlyd8Y3aBplWm-6" value="Facile" style="html=1;shadow=0;dashed=0;shape=mxgraph.bootstrap.radioButton2;labelPosition=right;verticalLabelPosition=middle;align=left;verticalAlign=middle;gradientColor=#DEDEDE;fillColor=#EDEDED;checked=1;spacing=5;checkedFill=#0085FC;checkedStroke=#ffffff;sketch=0;" vertex="1" parent="1">
          <mxGeometry x="260" y="354" width="10" height="10" as="geometry" />
        </mxCell>
        <mxCell id="R2gYlSWYlyd8Y3aBplWm-7" value="Moyenne" style="html=1;shadow=0;dashed=0;shape=mxgraph.bootstrap.radioButton2;labelPosition=right;verticalLabelPosition=middle;align=left;verticalAlign=middle;gradientColor=#DEDEDE;fillColor=#EDEDED;checked=0;spacing=5;checkedFill=#0085FC;checkedStroke=#ffffff;sketch=0;" vertex="1" parent="1">
          <mxGeometry x="260" y="374" width="10" height="10" as="geometry" />
        </mxCell>
        <mxCell id="R2gYlSWYlyd8Y3aBplWm-8" value="Difficulté" style="html=1;shadow=0;dashed=0;shape=mxgraph.bootstrap.radioButton2;labelPosition=right;verticalLabelPosition=middle;align=left;verticalAlign=middle;gradientColor=#DEDEDE;fillColor=#EDEDED;checked=0;spacing=5;fontColor=#6C767D;checkedFill=#0085FC;checkedStroke=#ffffff;sketch=0;" vertex="1" parent="1">
          <mxGeometry x="260" y="394" width="10" height="10" as="geometry" />
        </mxCell>
        <mxCell id="R2gYlSWYlyd8Y3aBplWm-10" value="" style="rounded=0;whiteSpace=wrap;html=1;points=[[0,0,0,0,0],[0,0.25,0,0,0],[0,0.5,0,0,0],[0,0.75,0,0,0],[0,1,0,0,0],[0.25,0,0,0,0],[0.25,1,0,0,0],[0.5,0,0,0,0],[0.5,1,0,0,0],[0.75,0,0,0,0],[0.75,1,0,0,0],[1,0,0,0,0],[1,0.25,0,0,0],[1,0.5,0,0,0],[1,0.75,0,0,0],[1,1,0,0,0]];" vertex="1" parent="1">
          <mxGeometry x="240" y="464" width="80" height="30" as="geometry" />
        </mxCell>
        <mxCell id="R2gYlSWYlyd8Y3aBplWm-11" value="" style="rounded=0;whiteSpace=wrap;html=1;" vertex="1" parent="1">
          <mxGeometry x="380" y="464" width="80" height="30" as="geometry" />
        </mxCell>
        <mxCell id="R2gYlSWYlyd8Y3aBplWm-12" value="" style="endArrow=none;html=1;rounded=0;" edge="1" parent="1">
          <mxGeometry width="50" height="50" relative="1" as="geometry">
            <mxPoint x="320" y="478.5" as="sourcePoint" />
            <mxPoint x="380" y="478.5" as="targetPoint" />
          </mxGeometry>
        </mxCell>
        <mxCell id="R2gYlSWYlyd8Y3aBplWm-13" value="Dropdown button" style="rounded=1;fillColor=#F1F2F4;strokeColor=none;html=1;whiteSpace=wrap;fontColor=#596780;align=left;fontSize=12;spacingLeft=10;sketch=0;" vertex="1" parent="1">
          <mxGeometry x="240" y="524" width="140" height="33" as="geometry" />
        </mxCell>
        <mxCell id="R2gYlSWYlyd8Y3aBplWm-14" value="" style="shape=triangle;direction=south;fillColor=#596780;strokeColor=none;html=1;sketch=0;" vertex="1" parent="R2gYlSWYlyd8Y3aBplWm-13">
          <mxGeometry x="1" y="0.5" width="12" height="6" relative="1" as="geometry">
            <mxPoint x="-20" y="-3" as="offset" />
          </mxGeometry>
        </mxCell>
        <mxCell id="R2gYlSWYlyd8Y3aBplWm-15" value="Facile" style="html=1;shadow=0;dashed=0;shape=mxgraph.bootstrap.radioButton2;labelPosition=right;verticalLabelPosition=middle;align=left;verticalAlign=middle;gradientColor=#DEDEDE;fillColor=#EDEDED;checked=1;spacing=5;checkedFill=#0085FC;checkedStroke=#ffffff;sketch=0;" vertex="1" parent="1">
          <mxGeometry x="260" y="354" width="10" height="10" as="geometry" />
        </mxCell>
        <mxCell id="R2gYlSWYlyd8Y3aBplWm-18" value="Null" style="html=1;shadow=0;dashed=0;shape=mxgraph.bootstrap.radioButton2;labelPosition=right;verticalLabelPosition=middle;align=left;verticalAlign=middle;gradientColor=#DEDEDE;fillColor=#EDEDED;checked=0;spacing=5;checkedFill=#0085FC;checkedStroke=#ffffff;sketch=0;" vertex="1" parent="1">
          <mxGeometry x="260" y="414" width="10" height="10" as="geometry" />
        </mxCell>
        <mxCell id="R2gYlSWYlyd8Y3aBplWm-19" value="&lt;font style=&quot;font-size: 24px;&quot;&gt;Ingrédients*&lt;/font&gt;" style="text;html=1;align=center;verticalAlign=middle;whiteSpace=wrap;rounded=0;" vertex="1" parent="1">
          <mxGeometry x="95" y="180" width="60" height="30" as="geometry" />
        </mxCell>
        <mxCell id="R2gYlSWYlyd8Y3aBplWm-21" value="Dropdown button" style="rounded=1;fillColor=#F1F2F4;strokeColor=none;html=1;whiteSpace=wrap;fontColor=#596780;align=left;fontSize=12;spacingLeft=10;sketch=0;" vertex="1" parent="1">
          <mxGeometry x="240" y="177" width="140" height="33" as="geometry" />
        </mxCell>
        <mxCell id="R2gYlSWYlyd8Y3aBplWm-22" value="" style="shape=triangle;direction=south;fillColor=#596780;strokeColor=none;html=1;sketch=0;" vertex="1" parent="R2gYlSWYlyd8Y3aBplWm-21">
          <mxGeometry x="1" y="0.5" width="12" height="6" relative="1" as="geometry">
            <mxPoint x="-20" y="-3" as="offset" />
          </mxGeometry>
        </mxCell>
      </root>
    </mxGraphModel>
  </diagram>
</mxfile>
